<?xml version="1.0" encoding="utf-8"?>
<!-- Generator: Adobe Illustrator 19.2.1, SVG Export Plug-In . SVG Version: 6.00 Build 0)  -->
<svg version="1.1" xmlns="http://www.w3.org/2000/svg" xmlns:xlink="http://www.w3.org/1999/xlink" x="0px" y="0px"
	 viewBox="0 0 32 32" style="enable-background:new 0 0 32 32;" xml:space="preserve">
<style type="text/css">
	.st0{display:none;}
	.st1{display:inline;}
	.st2{fill:#8CC63F;}
	.st3{fill:#F57E1F;}
	.st4{display:inline;fill:#F57E1F;}
	.st5{fill:#00A2DE;}
</style>
<g id="Capa_1" class="st0">
	<g class="st1">
		<path class="st2" d="M3.4,13.9c0,0.2,0.1,0.4,0.3,0.6c0,0,0.1,0.1,0,0.2c-0.1,0.2-0.1,0.4,0,0.6c0.1,0.2,0.3,0.3,0.5,0.3
			c0,0,0.1,0,0.1,0.1c0,0.2,0.1,0.3,0.3,0.5c0.2,0.1,0.4,0.1,0.6,0c0,0,0.1,0,0.2,0c0.1,0.2,0.3,0.3,0.5,0.3s0.4-0.1,0.6-0.3
			c0,0,0.1-0.1,0.2,0c0.2,0.1,0.4,0.1,0.6,0s0.3-0.3,0.3-0.5c0,0,0-0.1,0.1-0.1c0.2,0,0.3-0.1,0.5-0.3c0.1-0.2,0.1-0.4,0-0.6
			c0,0,0-0.1,0-0.2c0.2-0.1,0.3-0.3,0.3-0.5s-0.1-0.4-0.3-0.6c0,0-0.1-0.1,0-0.2c0.1-0.2,0.1-0.4,0-0.6c-0.1-0.2-0.3-0.3-0.5-0.3
			c0,0-0.1,0-0.1-0.1c0-0.2-0.1-0.3-0.3-0.5c-0.2-0.1-0.4-0.1-0.6,0c0,0-0.1,0-0.2,0c-0.1-0.2-0.3-0.3-0.5-0.3s-0.4,0.1-0.6,0.3
			c0,0-0.1,0.1-0.2,0c-0.2-0.1-0.4-0.1-0.6,0S4.3,12,4.3,12.2c0,0,0,0.1-0.1,0.1c-0.2,0-0.3,0.1-0.5,0.3c-0.1,0.2-0.1,0.4,0,0.6
			c0,0.1,0,0.1,0,0.2C3.6,13.5,3.4,13.7,3.4,13.9L3.4,13.9z"/>
		<path class="st2" d="M30.6,4.2H1.4C0.9,4.2,0.5,4.6,0.5,5v22c0,0.5,0.4,0.9,0.9,0.9h29.3c0.5,0,0.9-0.4,0.9-0.9V5
			C31.5,4.6,31.1,4.2,30.6,4.2L30.6,4.2z M29.8,25.4c0,0.3-0.3,0.7-0.7,0.7H2.9c-0.3,0-0.7-0.3-0.7-0.7V6.6c0-0.3,0.3-0.7,0.7-0.7
			h1.3c0.2,0,0.3,0.1,0.3,0.3v4.7L4.6,11H5l0,0c0.3-0.2,0.6-0.3,1-0.3c0.3,0,0.7,0.1,1,0.3c0,0,0,0,0.1,0h0.3c0.1,0,0.1,0,0.1-0.1
			V6.3C7.6,6.1,7.7,6,7.9,6h21.2c0.3,0,0.7,0.3,0.7,0.7C29.8,6.7,29.8,25.4,29.8,25.4z"/>
		<path class="st2" d="M14,10.6h9.7c0.5,0,0.9-0.4,0.9-0.9s-0.4-0.9-0.9-0.9H14c-0.5,0-0.9,0.4-0.9,0.9S13.5,10.6,14,10.6z"/>
		<path class="st3" d="M26.3,13.1H14c-0.3,0-0.7,0.3-0.7,0.7s0.3,0.7,0.7,0.7h12.3c0.3,0,0.7-0.3,0.7-0.7S26.7,13.1,26.3,13.1z"/>
		<path class="st3" d="M20.3,16.5H14c-0.3,0-0.7,0.3-0.7,0.7c0,0.3,0.3,0.7,0.7,0.7h6.3c0.3,0,0.7-0.3,0.7-0.7S20.7,16.5,20.3,16.5z
			"/>
		<path class="st3" d="M19.1,19.5H14c-0.3,0-0.7,0.3-0.7,0.7s0.3,0.7,0.7,0.7h5.1c0.3,0,0.7-0.3,0.7-0.7S19.5,19.5,19.1,19.5z"/>
		<path class="st3" d="M17.7,22.6H14c-0.3,0-0.7,0.3-0.7,0.7c0,0.3,0.3,0.7,0.7,0.7h3.7c0.3,0,0.7-0.3,0.7-0.7S18.1,22.6,17.7,22.6z
			"/>
		<path class="st2" d="M8.1,24.8c0,0-0.1,0-0.2,0c-0.2-0.1-0.3-0.3-0.3-0.5c0.1-0.4,0.2-0.9,0.3-1.3c-0.1,0.2-0.2,0.4-0.3,0.6
			c-0.3,0.4-0.7,0.6-1.1,0.6c-0.2,0-0.4-0.2-0.4-0.5c0-0.2,0.2-0.4,0.5-0.4c0.1,0,0.3-0.1,0.4-0.3c0.1-0.2,0.3-0.3,0.3-0.6
			c0,0-0.1,0-0.2-0.1C7,22.2,7,22.1,7,21.9v-0.3c0-0.2,0.2-0.3,0.3-0.3h0.2c0-0.1,0-0.1,0-0.2c0.1-0.7,0.3-1.4,0.7-1.9
			C8.4,19,8.6,19,8.8,19s0.3,0.2,0.3,0.4V21c0.1-0.1,0.3-0.2,0.4-0.2c0.2,0,0.3,0.2,0.4,0.3c0,0.3,0,0.7,0,1l0.9,0.3
			c0.2,0.1,0.3,0.3,0.3,0.6c-0.1,0.2-0.3,0.3-0.6,0.3L9.7,23c-0.1,0.1-0.2,0.2-0.3,0.2H9.3c-0.2,0.5-0.5,0.9-0.7,1.4
			C8.4,24.7,8.2,24.8,8.1,24.8L8.1,24.8z"/>
	</g>
</g>
<g id="Layer_2" class="st0">
	<path class="st4" d="M26.7,19.2h-0.2l0-1.2c0-1.3-1.1-2.4-2.4-2.4c-1.3,0-2.4,1.1-2.4,2.4l0,1.2l-0.1,0c-0.5,0-0.8,0.4-0.8,0.8v3.6
		c0,0.5,0.4,0.8,0.8,0.8l5.1,0c0.5,0,0.8-0.4,0.8-0.8V20C27.5,19.5,27.2,19.2,26.7,19.2L26.7,19.2z M22.6,19.2l0-1.2
		c0-0.8,0.7-1.5,1.5-1.5c0.8,0,1.5,0.7,1.5,1.5l0,1.2L22.6,19.2z"/>
</g>
<g id="Layer_4">
	<path class="st5" d="M28.5,4.9H26V4.4c0-0.6-0.5-1.1-1.1-1.1s-1.1,0.5-1.1,1.1v0.6H8.4V4.4c0-0.6-0.5-1.1-1.1-1.1S6.2,3.8,6.2,4.4
		v0.6H3.6c-1.6,0-3,1.3-3,3v16.9c0,1.6,1.3,3,3,3h24.9c1.6,0,3-1.3,3-3V8C31.6,6.3,30.2,4.9,28.5,4.9L28.5,4.9z M30.3,24.9
		c0,1-0.8,1.7-1.7,1.7l-24.9,0c-1,0-1.7-0.8-1.7-1.7V11.5h28.4L30.3,24.9z"/>
</g>
<g id="Layer_5">
	<g id="Forma_1_1_">
		<g>
			<path class="st3" d="M8.6,12.9c-1.2,0-2.2,1.2-2.2,2.2c0,1.2,1.2,2.2,2.2,2.2c1.2,0,2.2-1.2,2.2-2.2C11,13.9,9.8,12.9,8.6,12.9z
				 M16.1,12.9c-1.2,0-2.2,1.2-2.2,2.2c0,1.2,1.2,2.2,2.2,2.2c1.2,0,2.2-1.2,2.2-2.2C18.3,13.9,17.3,12.9,16.1,12.9z M23.6,17.6
				c1.2,0,2.2-1.2,2.2-2.2c0-1.2-1.2-2.2-2.2-2.2c-1.2,0-2.2,1.2-2.2,2.2C21.2,16.3,22.4,17.6,23.6,17.6z M8.6,20.5
				c-1.2,0-2.2,1.2-2.2,2.2s1.2,2.2,2.2,2.2c1.2,0,2.2-1.2,2.2-2.2C10.7,21.7,9.8,20.5,8.6,20.5z M16.1,20.5c-1.2,0-2.2,1.2-2.2,2.2
				s1.2,2.2,2.2,2.2c1.2,0,2.2-1.2,2.2-2.2C18.3,21.7,17.3,20.5,16.1,20.5z M23.6,20.5c-1.2,0-2.2,1.2-2.2,2.2s1.2,2.2,2.2,2.2
				c1.2,0,2.2-1.2,2.2-2.2C25.8,21.7,24.9,20.5,23.6,20.5z"/>
		</g>
	</g>
</g>
</svg>
